# xmcd
#
# Track frame offsets:
#	150
#	13140
#	25392
#	47995
#	61480
#	72942
#	85595
#	99175
#	110877
#	123290
#	136577
#	146590
#	160572
#	174900
#	192520
#	207952
#	219057
#	231400
#	245662
#
# Disc length: 3446
#
# Revision: 3
# Processed by: cddbd v1.5.1PL0 Copyright (c) Steve Scherf et al.
# Submitted via: CDex 1.50
# Normalized: r1:DSETVAR1,TDELIM( - ),TSWAP
#
DISCID=080d7413
DTITLE=Various Artist - The Best Of Country Song 1
DYEAR=1900
DGENRE=Country
TTITLE0=Johnny Horton - North To Alaska
TTITLE1=Hank Williams - Your Cheating Heart
TTITLE2=Mary Hopkin - Those Were The Days
TTITLE3=Johnny Horton - Whispering Pine
TTITLE4=Bobby Vinton - I Love You How You Love Me
TTITLE5=Bobby Bare - Detroit City
TTITLE6=Emmylou Harris - Pledging My Love
TTITLE7=Freddy Fender - Before The Next Teardrop Falls
TTITLE8=Christie - Yellow River
TTITLE9=Creedence Clearwater Revival - Cotton Fields
TTITLE10=Ann Murray - Snow Bird
TTITLE11=Tom Jones - Green Green Grass Of Home
TTITLE12=John Denver - Take Me Home Country Roads
TTITLE13=Albert Hammond - It Never Rains In Southern California
TTITLE14=Dawn - Tie A Yellow Ribbon Round The Ole Oak Tree
TTITLE15=Linda Ronstadt - Silver Threads And Golden Needles
TTITLE16=Bobby Bare - 500 Miles Away From Home
TTITLE17=Johnny Horton - The Mansion You Stole
TTITLE18=Lynn Anderson - Rose Garden
EXTD=
EXTT0=
EXTT1=
EXTT2=
EXTT3=
EXTT4=
EXTT5=
EXTT6=
EXTT7=
EXTT8=
EXTT9=
EXTT10=
EXTT11=
EXTT12=
EXTT13=
EXTT14=
EXTT15=
EXTT16=
EXTT17=
EXTT18=
PLAYORDER=
